<svg width="17" height="17" viewBox="0 0 17 17" fill="none" xmlns="http://www.w3.org/2000/svg">
<path d="M8.23038 0C4.7949 0 2 2.7949 2 6.23038C2 7.80857 2.99441 10.0384 4.95573 12.8579C6.3893 14.919 7.79926 16.5139 7.85867 16.5808L8.23038 17L8.60223 16.5808C8.66151 16.5139 10.0715 14.919 11.5052 12.8579C13.4664 10.0384 14.4609 7.80857 14.4609 6.23038C14.4609 2.7949 11.6659 0 8.23038 0ZM10.6947 12.2823C9.72569 13.6763 8.74633 14.876 8.23038 15.4881C7.71574 14.8777 6.74001 13.6825 5.77167 12.2903C3.95444 9.67793 2.99389 7.58237 2.99389 6.23038C2.99389 3.34301 5.34301 0.993889 8.23038 0.993889C11.1179 0.993889 13.4669 3.34301 13.4669 6.23038C13.4669 7.58095 12.5083 9.67365 10.6947 12.2823Z" fill="#005FA3"/>
<path d="M8.48821 2.30267C6.46062 2.30267 4.8111 3.95219 4.8111 5.97979C4.8111 8.00739 6.46062 9.65704 8.48821 9.65704C10.5159 9.65704 12.1655 8.00739 12.1655 5.97979C12.1655 3.95219 10.5159 2.30267 8.48821 2.30267ZM8.48821 8.66315C7.00873 8.66315 5.80499 7.4594 5.80499 5.97979C5.80499 4.50031 7.00873 3.29656 8.48821 3.29656C9.96783 3.29656 11.1716 4.50031 11.1716 5.97979C11.1716 7.4594 9.96783 8.66315 8.48821 8.66315Z" fill="#005FA3"/>
</svg>
