<svg width="19" height="18" viewBox="0 0 19 18" fill="none" xmlns="http://www.w3.org/2000/svg">
<path d="M12 7L11.507 6.918C11.4951 6.9896 11.4989 7.06293 11.5182 7.1329C11.5375 7.20287 11.5718 7.2678 11.6187 7.32318C11.6656 7.37856 11.724 7.42306 11.7899 7.4536C11.8557 7.48413 11.9274 7.49997 12 7.5V7ZM1 7V6.5C0.867392 6.5 0.740215 6.55268 0.646447 6.64645C0.552679 6.74021 0.5 6.86739 0.5 7H1ZM3 17.5H14.36V16.5H3V17.5ZM15.56 6.5H12V7.5H15.56V6.5ZM12.493 7.082L13.299 2.247L12.313 2.082L11.507 6.918L12.493 7.082ZM11.82 0.5H11.607V1.5H11.82V0.5ZM8.694 2.059L6.178 5.832L7.01 6.387L9.525 2.613L8.693 2.059H8.694ZM4.93 6.5H1V7.5H4.93V6.5ZM0.5 7V15H1.5V7H0.5ZM16.812 15.49L18.012 9.49L17.032 9.294L15.832 15.294L16.812 15.49ZM6.178 5.832C6.04103 6.03747 5.85546 6.20594 5.63775 6.32247C5.42004 6.439 5.17693 6.49998 4.93 6.5V7.5C5.34153 7.50001 5.74669 7.39842 6.10954 7.20427C6.47238 7.01011 6.78169 6.72938 7.01 6.387L6.178 5.832ZM13.299 2.247C13.3349 2.03214 13.3235 1.81203 13.2657 1.602C13.2079 1.39197 13.1051 1.19705 12.9643 1.03079C12.8236 0.864534 12.6483 0.730927 12.4507 0.639263C12.253 0.547599 12.0378 0.500076 11.82 0.5V1.5C11.8927 1.49989 11.9645 1.51562 12.0304 1.54609C12.0964 1.57656 12.1549 1.62104 12.202 1.67644C12.249 1.73184 12.2834 1.79682 12.3027 1.86686C12.3221 1.9369 12.3259 2.01032 12.314 2.082L13.299 2.247ZM15.56 7.5C15.7819 7.49999 16.0011 7.54921 16.2017 7.64413C16.4023 7.73906 16.5793 7.8773 16.72 8.04891C16.8607 8.22052 16.9616 8.42121 17.0154 8.63652C17.0692 8.85183 17.0755 9.07638 17.032 9.294L18.012 9.49C18.0845 9.12744 18.0746 8.75333 17.9851 8.3946C17.8955 8.03588 17.7276 7.70148 17.4932 7.4155C17.2589 7.12951 16.964 6.89907 16.6299 6.74076C16.2958 6.58245 15.9307 6.50022 15.561 6.5V7.5H15.56ZM14.36 17.5C14.9381 17.5001 15.4983 17.2999 15.9454 16.9334C16.3925 16.5669 16.6987 16.0569 16.812 15.49L15.832 15.294C15.764 15.6343 15.5801 15.9404 15.3117 16.1603C15.0433 16.3802 14.707 16.5003 14.36 16.5V17.5ZM11.606 0.5C11.0296 0.499914 10.4621 0.642173 9.95397 0.914143C9.44579 1.18611 9.01264 1.57937 8.693 2.059L9.525 2.613C9.75331 2.27062 10.0626 1.98989 10.4255 1.79573C10.7883 1.60158 11.1935 1.49999 11.605 1.5V0.5H11.606ZM3 16.5C2.60218 16.5 2.22064 16.342 1.93934 16.0607C1.65804 15.7794 1.5 15.3978 1.5 15H0.5C0.5 15.3283 0.564664 15.6534 0.690301 15.9567C0.815938 16.26 1.00009 16.5356 1.23223 16.7678C1.46438 16.9999 1.73998 17.1841 2.04329 17.3097C2.34661 17.4353 2.6717 17.5 3 17.5V16.5Z" fill="#222222"/>
<path d="M5 7V17" stroke="#222222"/>
</svg>
