<svg width="18" height="30" viewBox="0 0 18 30" fill="none" xmlns="http://www.w3.org/2000/svg">
<path d="M15.4575 0H2.0337C0.915337 0 0 0.911143 0 2.02629V27.9729C0 29.088 0.915337 30 2.0337 30H15.4575C16.5759 30 17.4912 29.0897 17.4912 27.9737V2.02629C17.4912 0.911143 16.5759 0 15.4575 0ZM6.59834 1.46057H10.8929C11.0288 1.46057 11.1389 1.57029 11.1389 1.70657C11.1389 1.842 11.0288 1.95171 10.8929 1.95171H6.59834C6.46242 1.95171 6.3523 1.842 6.3523 1.70657C6.3523 1.57029 6.46242 1.46057 6.59834 1.46057ZM8.7456 28.9869C8.18384 28.9869 7.72875 28.5334 7.72875 27.9729C7.72875 27.4123 8.18384 26.9597 8.7456 26.9597C9.30736 26.9597 9.76245 27.4123 9.76245 27.9729C9.76245 28.5334 9.30736 28.9869 8.7456 28.9869ZM16.076 26.25H1.41516V3.21343H16.076V26.25Z" fill="white"/>
</svg>
